<?xml version="1.0" encoding="UTF-8" standalone="no"?>
<!-- Created with Inkscape (http://www.inkscape.org/) -->

<svg
   width="178mm"
   height="162mm"
   viewBox="0 0 178 162"
   version="1.1"
   id="svg5"
   inkscape:version="1.1.2 (b8e25be833, 2022-02-05)"
   sodipodi:docname="instalaciones.svg"
   xmlns:inkscape="http://www.inkscape.org/namespaces/inkscape"
   xmlns:sodipodi="http://sodipodi.sourceforge.net/DTD/sodipodi-0.dtd"
   xmlns="http://www.w3.org/2000/svg"
   xmlns:svg="http://www.w3.org/2000/svg">
  <sodipodi:namedview
     id="namedview7"
     pagecolor="#ffffff"
     bordercolor="#666666"
     borderopacity="1.0"
     inkscape:pageshadow="2"
     inkscape:pageopacity="0.0"
     inkscape:pagecheckerboard="0"
     inkscape:document-units="mm"
     showgrid="false"
     inkscape:zoom="0.52347032"
     inkscape:cx="63.995988"
     inkscape:cy="338.12805"
     inkscape:window-width="1920"
     inkscape:window-height="1017"
     inkscape:window-x="-8"
     inkscape:window-y="-8"
     inkscape:window-maximized="1"
     inkscape:current-layer="layer1" />
  <defs
     id="defs2" />
  <g
     inkscape:label="Capa 1"
     inkscape:groupmode="layer"
     id="layer1">
    <g
       id="g1142"
       transform="translate(-17.690433,-9.0979371)">
      <path
         style="fill:#000000;stroke-width:1.62046"
         d="m 78.643341,165.07735 c -9.651504,-0.96767 -47.520793,-6.9485 -50.250646,-7.93624 -1.920053,-0.69474 -2.316186,-11.16989 -2.316186,-61.250699 0,-33.226961 0.367115,-60.41264 0.815773,-60.41264 0.448678,0 6.268581,1.399182 12.933114,3.109279 9.482974,2.433297 35.596822,6.237047 43.381904,6.318992 0.674505,0.0078 1.425465,20.71509 1.668787,46.017754 0.407454,42.371294 0.673058,46.046664 3.362773,46.534584 2.50109,0.45367 2.920388,-0.7379 2.920388,-8.29912 v -8.82884 l 15.436272,0.45241 15.4363,0.45244 0.50804,8.35992 c 0.41757,6.87115 1.01194,8.26853 3.33757,7.84669 2.57107,-0.46636 2.86996,-4.71556 3.27192,-46.518084 0.24334,-25.302664 0.99428,-46.01064 1.66879,-46.017754 7.78508,-0.08189 33.89894,-3.885695 43.3819,-6.318992 6.66454,-1.710097 12.48442,-3.109279 12.93312,-3.109279 0.44868,0 0.81577,27.234147 0.81577,60.520343 v 60.520326 l -7.09236,1.81755 c -18.26565,4.68089 -34.16112,6.39578 -63.83111,6.88635 -17.43884,0.28836 -34.710791,0.22311 -38.382119,-0.14501 z m 13.144462,-53.22163 c -2.466803,-6.06145 0.34043,-7.28587 15.614827,-6.8108 14.36324,0.44676 14.62919,0.52654 14.62919,4.38886 0,3.86232 -0.26595,3.94212 -14.62919,4.38886 -11.934589,0.3712 -14.810737,0.01 -15.614827,-1.96692 z m 0.48397,-14.485686 c -0.611885,-0.576957 -1.112525,-2.347189 -1.112525,-3.93383 0,-2.594939 1.592936,-2.884806 15.853482,-2.884806 15.79786,0 15.85348,0.01368 15.85348,3.933831 0,3.899177 -0.1299,3.933827 -14.74095,3.933827 -8.10754,0 -15.241602,-0.472065 -15.853487,-1.049022 z m -0.811389,-18.22674 c 0.50788,-3.372078 1.247519,-3.540463 15.552346,-3.540463 14.30481,0 15.04445,0.168463 15.55235,3.540463 0.52135,3.461469 0.17454,3.540443 -15.55235,3.540443 -15.726854,0 -16.073719,-0.07895 -15.552346,-3.540443 z m 1.154674,-10.953469 c -0.117237,-0.250057 -0.390079,-2.047844 -0.606555,-3.995099 -0.383243,-3.447574 0.02011,-3.540444 15.348137,-3.540444 15.37021,0 15.7291,0.08345 15.20844,3.540444 -0.5004,3.322321 -1.43289,3.568469 -15.13516,3.995099 -8.03104,0.250056 -14.697725,0.250056 -14.814862,0 z M 91.460384,49.246178 c 0.50788,-3.372078 1.247519,-3.540444 15.552346,-3.540444 14.30481,0 15.04445,0.168463 15.55235,3.540444 0.52135,3.461488 0.17454,3.540443 -15.55235,3.540443 -15.726854,0 -16.073719,-0.07896 -15.552346,-3.540443 z M 74.484543,36.982331 C 47.939084,34.569789 26.881704,29.31953 28.216316,25.446167 c 0.934297,-2.711554 8.307541,-5.605857 21.635708,-8.492969 9.626923,-2.085347 21.152007,-2.631641 56.326316,-2.669946 45.86863,-0.05003 59.98582,1.407313 76.27823,7.873896 6.10298,2.422332 6.20869,2.593434 2.98918,4.838118 -4.39691,3.065541 -17.23849,6.479853 -31.70697,8.430207 -17.34635,2.338277 -61.181294,3.199374 -79.254237,1.556858 z"
         id="path854"
         sodipodi:nodetypes="ssssscssscccssscssscsssscssscssssssssssscsssscsssssssscssss" />
    </g>
  </g>
</svg>
